HIERARCHY
ROOT Hips
{
	OFFSET 0.000000 0.000000 0.000000
	CHANNELS 6 Xposition Yposition Zposition Xrotation Yrotation Zrotation
	JOINT Chest
	{
		OFFSET 0.000000 0.009282 11.569106
		CHANNELS 3 Xrotation Yrotation Zrotation
		JOINT Chest2
		{
			OFFSET 0.000000 -0.016863 9.269641
			CHANNELS 3 Xrotation Yrotation Zrotation
			JOINT Chest3
			{
				OFFSET 0.000000 0.000000 8.374491
				CHANNELS 3 Xrotation Yrotation Zrotation
				JOINT Chest4
				{
					OFFSET 0.000000 0.000000 8.374493
					CHANNELS 3 Xrotation Yrotation Zrotation
					JOINT Neck
					{
						OFFSET 0.000000 -0.000001 12.152554
						CHANNELS 3 Xrotation Yrotation Zrotation
						JOINT Head
						{
							OFFSET 0.000000 -0.040100 7.802319
							CHANNELS 3 Xrotation Yrotation Zrotation
							End Site
							{
								OFFSET 0.000000 -0.020946 14.853096
							}
						}
					}
					JOINT RightCollar
					{
						OFFSET -2.894404 0.000000 6.791374
						CHANNELS 3 Xrotation Yrotation Zrotation
						JOINT RightShoulder
						{
							OFFSET -13.574684 0.000000 0.000000
							CHANNELS 3 Xrotation Yrotation Zrotation
							JOINT RightElbow
							{
								OFFSET -23.923903 0.000000 0.000000
								CHANNELS 3 Xrotation Yrotation Zrotation
								JOINT RightWrist
								{
									OFFSET -19.846718 -0.012765 0.000000
									CHANNELS 3 Xrotation Yrotation Zrotation
									End Site
									{
										OFFSET -14.973145 0.000000 0.000000
									}
								}
							}
						}
					}
					JOINT LeftCollar
					{
						OFFSET 2.894404 0.000000 6.791374
						CHANNELS 3 Xrotation Yrotation Zrotation
						JOINT LeftShoulder
						{
							OFFSET 13.574684 0.000000 0.000000
							CHANNELS 3 Xrotation Yrotation Zrotation
							JOINT LeftElbow
							{
								OFFSET 23.923903 0.000000 0.000000
								CHANNELS 3 Xrotation Yrotation Zrotation
								JOINT LeftWrist
								{
									OFFSET 19.846718 -0.012765 0.000000
									CHANNELS 3 Xrotation Yrotation Zrotation
									End Site
									{
										OFFSET 14.973145 0.000000 0.000000
									}
								}
							}
						}
					}
				}
			}
		}
	}
	JOINT RightHip
	{
		OFFSET -9.469263 -0.004642 0.045487
		CHANNELS 3 Xrotation Yrotation Zrotation
		JOINT RightKnee
		{
			OFFSET 0.000000 -0.002666 -40.478676
			CHANNELS 3 Xrotation Yrotation Zrotation
			JOINT RightAnkle
			{
				OFFSET 0.000000 -0.049110 -35.224068
				CHANNELS 3 Xrotation Yrotation Zrotation
				JOINT RightToe
				{
					OFFSET 0.000000 -12.539530 -6.151390
					CHANNELS 3 Xrotation Yrotation Zrotation
					End Site
					{
						OFFSET 0.000000 -5.044995 -1.291870
					}
				}
			}
		}
	}
	JOINT LeftHip
	{
		OFFSET 9.469263 -0.004642 0.045487
		CHANNELS 3 Xrotation Yrotation Zrotation
		JOINT LeftKnee
		{
			OFFSET 0.000000 -0.002666 -40.478676
			CHANNELS 3 Xrotation Yrotation Zrotation
			JOINT LeftAnkle
			{
				OFFSET 0.000000 -0.049110 -35.224068
				CHANNELS 3 Xrotation Yrotation Zrotation
				JOINT LeftToe
				{
					OFFSET 0.000000 -12.539530 -6.151390
					CHANNELS 3 Xrotation Yrotation Zrotation
					End Site
					{
						OFFSET 0.000000 -5.044995 -1.291870
					}
				}
			}
		}
	}
}
MOTION
Frames: 5
Frame Time: 0.016667
-10.440590 16.851255 82.921074 2.676079 6.454349 -115.253104 7.248829 0.355527 -0.444637 3.483216 -0.140475 0.232917 3.483216 -0.140475 0.232912 2.612358 -0.106686 0.173893 24.135409 -1.779078 -0.953028 8.612034 -3.022576 -2.191246 -10.673268 -8.109257 -5.147639 31.759867 -38.375595 4.309864 57.297330 10.398441 68.708438 -56.931942 34.704372 91.564396 -8.510040 7.932331 -1.858974 22.608560 41.649264 2.088254 63.479163 7.101539 -67.898733 -38.659656 -33.817120 -94.855591 2.680638 -1.659577 -7.895230 4.877903 -2.188599 -1.864456 -2.902523 0.431665 -3.322225 0.556498 0.050469 0.201895 -2.868603 2.979043 -4.396486 17.669976 -0.629368 6.212700 -3.438013 -1.160552 7.391615 -2.102113 1.250126 -0.433677 
-10.440590 16.851255 82.921074 2.676079 6.454349 -115.253104 7.248829 0.355527 -0.444637 3.483216 -0.140475 0.232917 3.483216 -0.140475 0.232912 2.612358 -0.106686 0.173893 24.135409 -1.779078 -0.953028 8.612034 -3.022576 -2.191246 -10.673268 -8.109257 -5.147639 31.759867 -38.375595 4.309864 57.297330 10.398441 68.708438 -56.931942 34.704372 91.564396 -8.510040 7.932331 -1.858974 22.608560 41.649264 2.088254 63.479163 7.101539 -67.898733 -38.659656 -33.817120 -94.855591 2.680638 -1.659577 -7.895230 4.877903 -2.188599 -1.864456 -2.902523 0.431665 -3.322225 0.556498 0.050469 0.201895 -2.868603 2.979043 -4.396486 17.669976 -0.629368 6.212700 -3.438013 -1.160552 7.391615 -2.102113 1.250126 -0.433677 
-10.173080 16.803730 82.981056 2.380066 6.492556 -114.143082 7.461229 0.484986 -1.268091 3.531770 -0.124636 0.205021 3.531772 -0.124635 0.205017 2.648789 -0.094665 0.153042 24.122447 -1.848674 -0.956648 8.586395 -3.149016 -2.215656 -10.717135 -8.127625 -5.186790 31.736078 -38.336414 4.379399 57.288106 10.397045 68.733997 -56.886224 34.698672 91.546569 -8.440171 7.847381 -1.929910 22.815547 41.551446 1.606744 63.514790 7.121529 -67.975853 -38.761897 -33.929672 -94.951555 2.455611 -1.547796 -8.777103 4.973891 -2.272739 -2.144050 -2.967919 0.864453 -3.702871 0.578796 -0.207039 0.673675 -4.704601 3.653667 -6.054194 20.258770 -0.840283 7.238836 -2.035105 -1.252379 7.096771 -4.492192 2.003695 -0.402286 
-9.860305 16.686037 83.041985 1.902954 6.291150 -113.332243 7.382042 0.737181 -1.763317 3.583098 -0.117036 0.182819 3.583100 -0.117036 0.182814 2.687289 -0.088854 0.136428 24.098664 -1.925047 -0.970951 8.540300 -3.285031 -2.261687 -10.774243 -8.146488 -5.209802 31.658825 -38.351806 4.359767 57.289626 10.433980 68.750731 -56.800806 34.706233 91.486218 -8.333130 7.765388 -2.005037 23.010605 41.414722 1.144503 63.548230 7.112447 -68.084842 -38.877625 -34.076056 -95.036755 1.845249 -1.196521 -9.347965 5.144744 -2.429220 -2.486569 -3.036750 1.014065 -3.757583 0.637614 -0.247333 0.830735 -6.970594 4.498611 -7.338278 22.968133 -1.039743 8.269936 -0.056776 -1.487528 6.815139 -7.363293 2.936624 -0.380419 
-9.556439 16.553949 83.095253 1.602010 6.065658 -112.646335 7.346822 0.867311 -2.144773 3.636106 -0.125485 0.177349 3.636106 -0.125485 0.177345 2.727042 -0.095174 0.132264 24.067410 -2.002641 -0.998760 8.480042 -3.419793 -2.333039 -10.835928 -8.168559 -5.219966 31.564316 -38.354432 4.283001 57.287512 10.487443 68.812776 -56.719411 34.726628 91.435141 -8.213983 7.697112 -2.070987 23.197423 41.284242 0.720338 63.551085 7.074015 -68.166968 -38.988342 -34.235743 -95.103957 1.309956 -0.975807 -9.901313 5.317680 -2.569556 -2.799193 -3.120700 0.993097 -3.675595 0.676672 -0.180113 0.898619 -9.242870 5.297096 -8.407568 25.673366 -1.294216 9.160893 2.382022 -1.879709 6.658641 -10.586774 4.045256 -0.268769 
